<svg
  width="50"
  height="40"
  viewBox="0 0 50 40"
  xmlns="http://www.w3.org/2000/svg">

  <title>FTWK Icon</title>
  <g fill-rule="nonzero" fill="#FFD203">
    <path d="M30.319.082a.96.96 0 0 1 1.352.87v38.096a.96.96 0 0 1-1.274.9L.649 29.83a.953.953 0 0 1-.649-.9V14.048c0-.377.224-.718.571-.87L30.319.081zM1.923 14.667v13.582l27.825 9.465V2.418L1.923 14.667z"/>
    <path d="M31.67 37.036l16.407-13.32V9.866L31.67 2.436v34.6zM31.11.086l18.33 8.303a.952.952 0 0 1 .561.866v14.912c0 .285-.13.555-.352.736l-18.33 14.881c-.627.51-1.57.067-1.57-.736V.952c0-.693.724-1.154 1.361-.866zM1.923 27.66l14.603-4.208V19.81L1.923 15.339v12.32zm-.678-14.522l16.527 5.06a.953.953 0 0 1 .678.91v5.059a.954.954 0 0 1-.693.914L1.23 29.843A.96.96 0 0 1 0 28.929V14.048a.96.96 0 0 1 1.245-.91z"/><path d="M48.75 8.377a.96.96 0 0 1 1.25.909v14.88c0 .527-.43.953-.962.953h-31.55a.957.957 0 0 1-.962-.952v-5.06c0-.416.273-.784.674-.908l31.55-9.822zm-30.3 11.43v3.407h29.627v-12.63L18.45 19.805z" />
  </g>
</svg>
